<svg xmlns="http://www.w3.org/2000/svg" width="50px" height="50px" viewBox="0 0 172.46 172.57">
    <defs>
        <linearGradient id="a" x1="0%" y1="0%" y2="100%">
            <stop offset="0%" stop-color="#a1b6be"/>
            <stop offset="100%" stop-color="#3d4d5b"/>
        </linearGradient>
    </defs>
    <circle cx="86.23" cy="86.23" r="86.23" fill="url(#a)"/>
    <path d="M49.32 71.87a84.2 84.2 0 0 0 1.16 16.77 138 138 0 0 0 16.43 45.85c.9 1.55 1.89 3.51 4.06 3.17 2.43-.39 2.05-2.74 2.29-4.45 1.18-8.4 1-16.95 2.78-25.28 1-4.56 1.86-9.18 4.49-13.16 3.32-5 8.31-5.13 11.79-.27a26.59 26.59 0 0 1 4.1 10.12 154.2 154.2 0 0 1 3.19 27.24c.07 2.19-.16 5.22 2.68 5.82 2.56.55 3.52-2.09 4.54-3.95a141.19 141.19 0 0 0 15.23-41.59c2.48-13.21 3.79-26.44-.91-39.46-3.89-10.68-11.89-16.24-23.23-16.31-7.83-.05-15.67-.1-23.5 0-10.4.18-18.4 6-22.21 15.71a47 47 0 0 0-2.89 15.79z"
          fill="#FFF"/>
    <path d="M56.17 96.17C48 69.55 54.3 45.94 71.1 40.87c-8.15 6.74-12.48 15.53-14.31 25.64-1.79 9.83-1.53 19.71-.62 29.66z"
          fill="#3D4D5B"/>
</svg>
