<svg id="34de8be0-7438-4491-aa96-196ce06ce48b" data-name="PRINT" xmlns="http://www.w3.org/2000/svg"
     xmlns:xlink="http://www.w3.org/1999/xlink" viewBox="0 0 89.24 86.99">
    <defs>
        <pattern id="acb2bc3d-5e2b-4487-9c70-4abdfbe31a58" data-name="New Pattern 3" width="89.24" height="86.99"
                 patternTransform="translate(-369.24 -26.1)" patternUnits="userSpaceOnUse" viewBox="0 0 89.24 86.99">
            <rect width="89.24" height="86.99" fill="none"/>
            <path d="M78.92,16.51l1.38-.46L78,9.16a3.41,3.41,0,0,0-4.38-2L70.15,8.34,68.84,4.63l-0.07-.15A2.94,2.94,0,0,0,65.46,3L62,4.14a2.94,2.94,0,0,0-1.75,3.19l1.22,3.92L58,12.4a3.41,3.41,0,0,0-2.32,4.21l2.3,6.89L59.33,23c0.39-.13.84-0.28,1.4,1.4l2.17,6.5c0.56,1.67.11,1.82-.28,2l-1.38.46L63,38.71a3.41,3.41,0,0,0,4.39,2L83,35.47a3.41,3.41,0,0,0,2.32-4.21L83.58,25.9l-1.38.46c-0.39.13-.84,0.28-1.4-1.4l-2.17-6.49C78.08,16.79,78.52,16.64,78.92,16.51ZM80.13,27.4L64.89,32.48a5.34,5.34,0,0,0-.32-2.1L62.4,23.88a5.06,5.06,0,0,0-1.09-2L76.66,16.8A5.05,5.05,0,0,0,77,19l2.17,6.49A5.32,5.32,0,0,0,80.13,27.4ZM64.93,9.67l-1.4-4.19L65,5l1.4,4.19Zm2.27-4.36,1.13,3.22-1.1.37-1.4-4.19L66,4.65A1.23,1.23,0,0,1,67.21,5.31ZM62,7.06a1.23,1.23,0,0,1,.56-1.24l0.17-.06,1.4,4.19-1.1.37Zm-3.44,7L74.17,8.86a1.65,1.65,0,0,1,2.15.86l1.6,4.79-19,6.33-1.6-4.79A1.65,1.65,0,0,1,58.53,14.08Zm24,19.72L66.84,39a1.65,1.65,0,0,1-2.15-.86l-1.12-3.36,19-6.34,1.12,3.37A1.65,1.65,0,0,1,82.49,33.79Z"
                  fill="rgba(255, 255, 255 ,0.05)"/>
            <path d="M73.71,22.86l-1.57.53,0.74-1.48a0.71,0.71,0,1,0-1.27-.64l-0.74,1.48-0.52-1.57a0.71,0.71,0,1,0-1.35.45l0.52,1.57L68,22.45a0.71,0.71,0,0,0-.63,1.27l1.48,0.74L67.3,25a0.71,0.71,0,0,0,.45,1.35l1.57-.53L68.58,27.3a0.71,0.71,0,0,0,1.27.63l0.74-1.49L71.12,28a0.71,0.71,0,1,0,1.35-.45L71.94,26l1.48,0.74a0.7,0.7,0,0,0,.54,0,0.7,0.7,0,0,0,.41-0.36,0.71,0.71,0,0,0-.32-1l-1.48-.74,1.57-.52A0.71,0.71,0,1,0,73.71,22.86Z"
                  fill="rgba(255, 255, 255 ,0.05)"/>
            <path d="M70.59,84.21h0l-0.13,0a2.15,2.15,0,0,1-1.19-1.23c-0.83-2.08.72-6.11,2.53-10.15l0.35-.8a1,1,0,0,0,.08-0.74,1.35,1.35,0,0,0-.82-0.57l-0.21-.06-0.07,0-0.07,0-0.2-.07a1.34,1.34,0,0,0-1,0,1,1,0,0,0-.37.64c-0.05.23-.12,0.52-0.19,0.85-0.95,4.33-2.09,8.49-4,9.67a2.14,2.14,0,0,1-1.69.28l-0.13,0c-2.47-.81-2.69-5.79-0.79-17.76,1.72-10.84,5.21-12.63,7.83-12.23a11.88,11.88,0,0,1,4,1.27,12.29,12.29,0,0,0,4.25,1.4,12,12,0,0,1,4,1.34c2.35,1.23,4.09,4.75-1,14.49C76.19,81.14,73.06,85,70.59,84.21Zm1.36-15.15a3,3,0,0,1,1.84,1.49,2.54,2.54,0,0,1-.07,2.11l-0.36.82c-0.87,1.95-3.18,7.13-2.51,8.82a0.44,0.44,0,0,0,.25.29l-0.25.82,0.27-.81c0.62,0.2,2.74-.66,9.13-13,3.39-6.53,4-11,1.68-12.2a9.87,9.87,0,0,0-3.42-1.16,13.87,13.87,0,0,1-4.78-1.57,9.86,9.86,0,0,0-3.44-1.1c-2.59-.4-4.74,3.54-5.89,10.81C62.22,78.09,63.42,80,64,80.25a0.44,0.44,0,0,0,.39-0.07c1.55-1,2.77-6.5,3.22-8.59,0.08-.35.14-0.64,0.2-0.87A2.55,2.55,0,0,1,69,69a3.2,3.2,0,0,1,2.63,0Z"
                  fill="rgba(255, 255, 255 ,0.05)"/>
            <path d="M66.69,63.54a0.84,0.84,0,0,1-.54-0.83,15,15,0,0,1,3.16-7.63,0.87,0.87,0,0,1,1.16,0,0.7,0.7,0,0,1,.2,1,14.1,14.1,0,0,0-2.86,7,0.71,0.71,0,0,1-.92.52Z"
                  fill="rgba(255, 255, 255 ,0.05)"/>
            <circle cx="66.68" cy="65.22" r="1.04" transform="translate(-19.32 29.1) rotate(-21.58)"
                    fill="rgba(255, 255, 255 ,0.05)"/>
            <path d="M40.13,11.23a0.82,0.82,0,0,0-.48-0.42l-5.79-2a0.78,0.78,0,1,0-.5,1.48L38.16,12l-0.27.79-4.81-1.63a0.78,0.78,0,1,0-.5,1.48l4.81,1.63L37.12,15,32.32,13.4a0.78,0.78,0,1,0-.5,1.48l4.81,1.63-0.27.79-4.8-1.63a0.78,0.78,0,1,0-.5,1.48l4.81,1.63L27.54,43.3a1.09,1.09,0,0,0,2.06.7L40.36,12.25A1,1,0,0,0,40.13,11.23Z"
                  fill="rgba(255, 255, 255 ,0.05)"/>
            <path d="M25.64,18.09a4.08,4.08,0,0,0-1.23-4.41l1.9-5.6a2.61,2.61,0,0,0-1.63-3.3L21.36,3.66a2.6,2.6,0,0,0-3.3,1.63l-1.84,5.44A4,4,0,0,0,12,13.4L2.56,34.53A4.08,4.08,0,0,0,5.12,39.7l10,3.4a4.09,4.09,0,0,0,5.19-2.63Zm-1.57-.45L19,39.23l-2.64-.89c2.05-6.26,2-9.24,2-11.63a12.5,12.5,0,0,1,.61-4.86,13.68,13.68,0,0,1,4.74-6.61A2.52,2.52,0,0,1,24.07,17.64Zm-11,19.6c2.05-6.26,2-9.24,2-11.63a12.48,12.48,0,0,1,.61-4.86,13.34,13.34,0,0,1,5.12-6.88l1.33,0.45a15.38,15.38,0,0,0-4.78,7,14,14,0,0,0-.7,5.41c0,2.27.08,5.09-1.88,11.08Zm6.75-25.41L22,5.59,23.07,6,21,12.21Zm4.89-4.28L23,12.88l-1-.33L24.1,6.31l0,0A1,1,0,0,1,24.76,7.56ZM19.61,5.81a1,1,0,0,1,1.23-.61l0.11,0-2.12,6.24-1-.35ZM13.54,14a2.44,2.44,0,0,1,3-1.57h0l0.1,0,2.29,0.78a15.36,15.36,0,0,0-4.78,7,14,14,0,0,0-.7,5.41c0,2.27.08,5.09-1.88,11.08L4.45,34.3Zm2.14,27.56-10-3.4A2.46,2.46,0,0,1,4,35.87l14.4,4.88A2.44,2.44,0,0,1,15.68,41.55Z"
                  fill="rgba(255, 255, 255 ,0.05)"/>
            <path d="M46.43,76.59A0.91,0.91,0,0,0,46,75.9l-0.75-.45c-2-1.15-4-2.34-6.84-8.05a9.62,9.62,0,0,0-5.91-5.3,10.56,10.56,0,0,0-5.66,0,10.55,10.55,0,0,0-4.75-3.08,9.63,9.63,0,0,0-7.84,1.27C8.78,63.6,6.43,63.5,4.16,63.41l-0.87,0a0.92,0.92,0,0,0-.91,1.14l0.06,0.21a0.9,0.9,0,0,0,.21.66c1,2.88,5.19,12,18.77,15.24q0.88,0.31,1.73.56h0c12.19,3.57,20-1.46,22.3-3.26A0.91,0.91,0,0,0,46,77.47l0.14-.13A0.91,0.91,0,0,0,46.43,76.59ZM15.21,61.91a7.85,7.85,0,0,1,6.38-1.08,8.91,8.91,0,0,1,4.23,2.94,0.92,0.92,0,0,0,1,.3A8.92,8.92,0,0,1,32,63.87a7.87,7.87,0,0,1,4.78,4.36,24.72,24.72,0,0,0,4.1,6.2C31.74,71.3,15.66,67,7.92,65A23.54,23.54,0,0,0,15.21,61.91Zm6.78,17H21.9c-11-2.6-15.39-9.29-17-12.7,6.63,1.7,29.59,7.69,38.32,11.1C40.18,79.28,32.82,82.7,22,78.88Z"
                  fill="rgba(255, 255, 255 ,0.05)"/>
            <path d="M48.58,52.89a0.66,0.66,0,0,1-.19,0,0.69,0.69,0,0,1-.49-0.61l-0.35-4.94-4-3a0.69,0.69,0,0,1,.36-1.24l4.94-.35,3-4a0.69,0.69,0,0,1,1.24.36l0.35,4.94,4,3A0.69,0.69,0,0,1,57,48.29l-4.94.35-3,4A0.69,0.69,0,0,1,48.58,52.89Zm-2.69-8.53,2.73,2a0.69,0.69,0,0,1,.28.51l0.24,3.4,2-2.73a0.68,0.68,0,0,1,.5-0.28l3.4-.24-2.73-2a0.69,0.69,0,0,1-.28-0.51l-0.24-3.4-2,2.73a0.69,0.69,0,0,1-.5.28Z"
                  fill="rgba(255, 255, 255 ,0.05)"/>
            <path d="M50.66,66.44l-0.19,0A0.69,0.69,0,0,1,50,65.8l-0.26-3.7-3-2.21a0.69,0.69,0,0,1,.36-1.24l3.7-.26,2.21-3a0.69,0.69,0,0,1,1.24.36l0.26,3.7,3,2.21a0.69,0.69,0,0,1-.36,1.24l-3.7.26-2.21,3A0.69,0.69,0,0,1,50.66,66.44Zm-1.61-6.55,1.74,1.29a0.69,0.69,0,0,1,.28.5l0.15,2.16,1.29-1.74a0.69,0.69,0,0,1,.5-0.28l2.16-.15-1.74-1.29a0.69,0.69,0,0,1-.28-0.51L53,57.72l-1.29,1.74a0.69,0.69,0,0,1-.5.28Z"
                  fill="rgba(255, 255, 255 ,0.05)"/>
            <path d="M30.11,52.28a4,4,0,0,1-3-.59A2.2,2.2,0,0,0,24,52.3a4,4,0,0,1-5.48,1.05,2.19,2.19,0,0,0-3.16.61A4,4,0,0,1,9.86,55a2.18,2.18,0,0,0-1.71-.39,0.92,0.92,0,1,1-.35-1.8,4,4,0,0,1,3,.59,2.19,2.19,0,0,0,3.16-.61,4,4,0,0,1,5.48-1,2.2,2.2,0,0,0,3.17-.61A4,4,0,0,1,28,50.09a2.2,2.2,0,0,0,3.17-.61,4,4,0,0,1,2.53-1.64,0.92,0.92,0,1,1,.35,1.8,2.18,2.18,0,0,0-1.45,1A4,4,0,0,1,30.11,52.28Z"
                  fill="rgba(255, 255, 255 ,0.05)"/>
            <path d="M85.62,48.09a10.09,10.09,0,0,1,0-1.86,4,4,0,0,0-2.66.63,2.19,2.19,0,0,1-3.17-.6,4,4,0,0,0-5.48-1.05,2.19,2.19,0,0,1-3.16-.61A3.94,3.94,0,0,0,68.63,43a0.92,0.92,0,1,0-.35,1.8,2.18,2.18,0,0,1,1.45,1,4,4,0,0,0,5.48,1,2.19,2.19,0,0,1,3.16.61,4,4,0,0,0,5.48,1,2.19,2.19,0,0,1,1.72-.39h0Z"
                  fill="rgba(255, 255, 255 ,0.05)"/>
            <path d="M55.07,79.73a2.19,2.19,0,0,1,.47,1.7,4,4,0,0,0,.88,2.88l0,0A9.62,9.62,0,0,1,58,83.27l-0.12-.12a2.17,2.17,0,0,1-.47-1.69,4,4,0,0,0-3.52-4.33,2.19,2.19,0,0,1-2-2.5,4,4,0,0,0-.88-2.88,0.92,0.92,0,0,0-1.42,1.16,2.19,2.19,0,0,1,.47,1.7,4,4,0,0,0,3.52,4.33A2.19,2.19,0,0,1,55.07,79.73Z"
                  fill="rgba(255, 255, 255 ,0.05)"/>
            <circle cx="38" cy="47.08" r="1.61" fill="rgba(255, 255, 255 ,0.05)"/>
            <circle cx="83.75" cy="80.61" r="2.11" fill="rgba(255, 255, 255 ,0.05)"/>
            <circle cx="43.66" cy="6.15" r="2.11" fill="rgba(255, 255, 255 ,0.05)"/>
            <polygon points="47.82 25.66 40.98 30.73 45.93 33.66 47.82 25.66" fill="rgba(255, 255, 255 ,0.05)"/>
            <polygon points="80.93 9.58 87.64 4.34 82.62 1.54 80.93 9.58" fill="rgba(255, 255, 255 ,0.05)"/>
            <polygon points="10.02 77.51 2.23 80.94 6.41 84.89 10.02 77.51" fill="rgba(255, 255, 255 ,0.05)"/>
            <polygon points="44.43 16.38 47.19 18.22 51.55 11.33 49.25 10.18 44.43 16.38"
                     fill="rgba(255, 255, 255 ,0.05)"/>
            <polygon points="4.9 3.77 2 5.37 6.08 12.43 8.16 10.92 4.9 3.77" fill="rgba(255, 255, 255 ,0.05)"/>
        </pattern>
    </defs>
    <title>pattern</title>
    <rect width="160.79" height="102.42" fill="url(#acb2bc3d-5e2b-4487-9c70-4abdfbe31a58)"/>
</svg>
